<svg xmlns="http://www.w3.org/2000/svg" viewBox="0 0 900 380">
<rect width="900" height="380" fill="#FFFFFF"/>
<path d="
M 108 70 L 792 70 Q 830 70 830 108 L 830 166 A 24 24 0 0 0 830 214
L 830 272 Q 830 310 792 310 L 108 310 Q 70 310 70 272 L 70 214
A 24 24 0 0 0 70 166 L 70 108 Q 70 70 108 70 Z" fill="#C9AEE6" transform="translate(16,18)"/>
<path d="
M 108 70 L 792 70 Q 830 70 830 108 L 830 166 A 24 24 0 0 0 830 214
L 830 272 Q 830 310 792 310 L 108 310 Q 70 310 70 272 L 70 214
A 24 24 0 0 0 70 166 L 70 108 Q 70 70 108 70 Z" fill="#FFD21F" stroke="#5B2D91" stroke-width="14" stroke-linejoin="round"/>
<line x1="300" y1="92" x2="300" y2="288" stroke="#5B2D91" stroke-width="7" stroke-linecap="round" stroke-dasharray="3 17"/>
<!-- smiley gauche -->
<circle cx="152" cy="162" r="25" fill="#5B2D91"/>
<circle cx="220" cy="162" r="25" fill="#5B2D91"/>
<circle cx="160" cy="153" r="7" fill="#FFFFFF"/>
<circle cx="228" cy="153" r="7" fill="#FFFFFF"/>
<path d="M 136 206 Q 186 258 236 206" fill="none" stroke="#5B2D91" stroke-width="20" stroke-linecap="round"/>
</svg>